<mxfile host="app.diagrams.net" agent="Mozilla/5.0 (Windows NT 10.0; Win64; x64) AppleWebKit/537.36 (KHTML, like Gecko) Chrome/133.0.0.0 Safari/537.36" version="26.0.16">
  <diagram name="第 1 页" id="W2QV12aPetdI_Z1QHp4G">
    <mxGraphModel dx="1434" dy="780" grid="1" gridSize="10" guides="1" tooltips="1" connect="1" arrows="1" fold="1" page="1" pageScale="1" pageWidth="1169" pageHeight="3000" math="0" shadow="0">
      <root>
        <mxCell id="0" />
        <mxCell id="1" parent="0" />
        <mxCell id="2hdhjImFdKvlCasuUOon-4" style="edgeStyle=orthogonalEdgeStyle;rounded=0;orthogonalLoop=1;jettySize=auto;html=1;exitX=1;exitY=0.5;exitDx=0;exitDy=0;entryX=0;entryY=0.5;entryDx=0;entryDy=0;" edge="1" parent="1" source="2hdhjImFdKvlCasuUOon-1" target="2hdhjImFdKvlCasuUOon-3">
          <mxGeometry relative="1" as="geometry" />
        </mxCell>
        <mxCell id="2hdhjImFdKvlCasuUOon-1" value="启动采集系统" style="rounded=0;whiteSpace=wrap;html=1;" vertex="1" parent="1">
          <mxGeometry x="390" y="260" width="120" height="60" as="geometry" />
        </mxCell>
        <mxCell id="2hdhjImFdKvlCasuUOon-2" value="" style="endArrow=classic;html=1;rounded=0;entryX=0;entryY=0.5;entryDx=0;entryDy=0;" edge="1" parent="1" target="2hdhjImFdKvlCasuUOon-1">
          <mxGeometry width="50" height="50" relative="1" as="geometry">
            <mxPoint x="320" y="290" as="sourcePoint" />
            <mxPoint x="360" y="310" as="targetPoint" />
          </mxGeometry>
        </mxCell>
        <mxCell id="2hdhjImFdKvlCasuUOon-6" style="edgeStyle=orthogonalEdgeStyle;rounded=0;orthogonalLoop=1;jettySize=auto;html=1;exitX=1;exitY=0.5;exitDx=0;exitDy=0;entryX=0;entryY=0.5;entryDx=0;entryDy=0;" edge="1" parent="1" source="2hdhjImFdKvlCasuUOon-3" target="2hdhjImFdKvlCasuUOon-5">
          <mxGeometry relative="1" as="geometry" />
        </mxCell>
        <mxCell id="2hdhjImFdKvlCasuUOon-3" value="登录个人账号" style="rounded=0;whiteSpace=wrap;html=1;" vertex="1" parent="1">
          <mxGeometry x="580" y="260" width="120" height="60" as="geometry" />
        </mxCell>
        <mxCell id="2hdhjImFdKvlCasuUOon-11" style="edgeStyle=orthogonalEdgeStyle;rounded=0;orthogonalLoop=1;jettySize=auto;html=1;exitX=1;exitY=0.5;exitDx=0;exitDy=0;entryX=0;entryY=0.5;entryDx=0;entryDy=0;" edge="1" parent="1" source="2hdhjImFdKvlCasuUOon-5" target="2hdhjImFdKvlCasuUOon-10">
          <mxGeometry relative="1" as="geometry" />
        </mxCell>
        <mxCell id="2hdhjImFdKvlCasuUOon-5" value="进入采集页面" style="rounded=0;whiteSpace=wrap;html=1;" vertex="1" parent="1">
          <mxGeometry x="770" y="260" width="120" height="60" as="geometry" />
        </mxCell>
        <mxCell id="2hdhjImFdKvlCasuUOon-7" value="账号由上级机关发放" style="shape=parallelogram;perimeter=parallelogramPerimeter;whiteSpace=wrap;html=1;fixedSize=1;" vertex="1" parent="1">
          <mxGeometry x="720" y="150" width="170" height="60" as="geometry" />
        </mxCell>
        <mxCell id="2hdhjImFdKvlCasuUOon-8" value="" style="curved=1;endArrow=classic;html=1;rounded=0;exitX=0;exitY=0.5;exitDx=0;exitDy=0;entryX=0.558;entryY=-0.017;entryDx=0;entryDy=0;entryPerimeter=0;" edge="1" parent="1" source="2hdhjImFdKvlCasuUOon-7" target="2hdhjImFdKvlCasuUOon-3">
          <mxGeometry width="50" height="50" relative="1" as="geometry">
            <mxPoint x="650" y="240" as="sourcePoint" />
            <mxPoint x="700" y="190" as="targetPoint" />
            <Array as="points">
              <mxPoint x="700" y="180" />
              <mxPoint x="660" y="210" />
            </Array>
          </mxGeometry>
        </mxCell>
        <mxCell id="2hdhjImFdKvlCasuUOon-69" style="edgeStyle=orthogonalEdgeStyle;rounded=0;orthogonalLoop=1;jettySize=auto;html=1;exitX=1;exitY=0.5;exitDx=0;exitDy=0;entryX=0;entryY=0.5;entryDx=0;entryDy=0;" edge="1" parent="1" source="2hdhjImFdKvlCasuUOon-9" target="2hdhjImFdKvlCasuUOon-12">
          <mxGeometry relative="1" as="geometry" />
        </mxCell>
        <mxCell id="2hdhjImFdKvlCasuUOon-9" value="被提取人到场&lt;div&gt;等待采集&lt;/div&gt;" style="rounded=0;whiteSpace=wrap;html=1;" vertex="1" parent="1">
          <mxGeometry x="290" y="500" width="120" height="60" as="geometry" />
        </mxCell>
        <mxCell id="2hdhjImFdKvlCasuUOon-10" value="检查并连接硬件设备" style="rounded=0;whiteSpace=wrap;html=1;" vertex="1" parent="1">
          <mxGeometry x="960" y="260" width="120" height="60" as="geometry" />
        </mxCell>
        <mxCell id="2hdhjImFdKvlCasuUOon-65" style="edgeStyle=orthogonalEdgeStyle;rounded=0;orthogonalLoop=1;jettySize=auto;html=1;exitX=0.5;exitY=1;exitDx=0;exitDy=0;entryX=0.5;entryY=0;entryDx=0;entryDy=0;" edge="1" parent="1" source="2hdhjImFdKvlCasuUOon-12" target="2hdhjImFdKvlCasuUOon-21">
          <mxGeometry relative="1" as="geometry" />
        </mxCell>
        <mxCell id="2hdhjImFdKvlCasuUOon-12" value="" style="rounded=0;whiteSpace=wrap;html=1;" vertex="1" parent="1">
          <mxGeometry x="450" y="480" width="650" height="100" as="geometry" />
        </mxCell>
        <mxCell id="2hdhjImFdKvlCasuUOon-13" style="edgeStyle=orthogonalEdgeStyle;rounded=0;orthogonalLoop=1;jettySize=auto;html=1;exitX=0.5;exitY=1;exitDx=0;exitDy=0;entryX=0.5;entryY=0;entryDx=0;entryDy=0;" edge="1" parent="1" target="2hdhjImFdKvlCasuUOon-15">
          <mxGeometry relative="1" as="geometry">
            <mxPoint x="593" y="705" as="sourcePoint" />
          </mxGeometry>
        </mxCell>
        <mxCell id="2hdhjImFdKvlCasuUOon-16" style="edgeStyle=orthogonalEdgeStyle;rounded=0;orthogonalLoop=1;jettySize=auto;html=1;exitX=0.5;exitY=1;exitDx=0;exitDy=0;entryX=0.5;entryY=0;entryDx=0;entryDy=0;" edge="1" parent="1" target="2hdhjImFdKvlCasuUOon-18">
          <mxGeometry relative="1" as="geometry">
            <mxPoint x="903" y="705" as="sourcePoint" />
          </mxGeometry>
        </mxCell>
        <mxCell id="2hdhjImFdKvlCasuUOon-19" value="开始采集前" style="rounded=0;whiteSpace=wrap;html=1;" vertex="1" parent="1">
          <mxGeometry x="450" y="440" width="120" height="40" as="geometry" />
        </mxCell>
        <mxCell id="2hdhjImFdKvlCasuUOon-20" value="[手动/自动]&lt;div&gt;获取被提取人信息&lt;/div&gt;" style="rounded=0;whiteSpace=wrap;html=1;" vertex="1" parent="1">
          <mxGeometry x="715" y="500" width="120" height="60" as="geometry" />
        </mxCell>
        <mxCell id="2hdhjImFdKvlCasuUOon-66" style="edgeStyle=orthogonalEdgeStyle;rounded=0;orthogonalLoop=1;jettySize=auto;html=1;exitX=0.5;exitY=1;exitDx=0;exitDy=0;" edge="1" parent="1" source="2hdhjImFdKvlCasuUOon-21" target="2hdhjImFdKvlCasuUOon-22">
          <mxGeometry relative="1" as="geometry" />
        </mxCell>
        <mxCell id="2hdhjImFdKvlCasuUOon-21" value="民警确认信息无误后，点击&lt;div&gt;【开始采集】按钮&amp;nbsp;&lt;/div&gt;" style="rounded=0;whiteSpace=wrap;html=1;" vertex="1" parent="1">
          <mxGeometry x="700" y="630" width="150" height="70" as="geometry" />
        </mxCell>
        <mxCell id="2hdhjImFdKvlCasuUOon-71" style="edgeStyle=orthogonalEdgeStyle;rounded=0;orthogonalLoop=1;jettySize=auto;html=1;exitX=0.5;exitY=1;exitDx=0;exitDy=0;entryX=0.5;entryY=0;entryDx=0;entryDy=0;" edge="1" parent="1" source="2hdhjImFdKvlCasuUOon-22" target="2hdhjImFdKvlCasuUOon-67">
          <mxGeometry relative="1" as="geometry" />
        </mxCell>
        <mxCell id="2hdhjImFdKvlCasuUOon-22" value="" style="rounded=0;whiteSpace=wrap;html=1;movable=1;resizable=1;rotatable=1;deletable=1;editable=1;locked=0;connectable=1;" vertex="1" parent="1">
          <mxGeometry x="450" y="750" width="650" height="560" as="geometry" />
        </mxCell>
        <mxCell id="2hdhjImFdKvlCasuUOon-50" style="edgeStyle=orthogonalEdgeStyle;rounded=0;orthogonalLoop=1;jettySize=auto;html=1;exitX=1;exitY=0.5;exitDx=0;exitDy=0;entryX=0;entryY=0.5;entryDx=0;entryDy=0;" edge="1" parent="1" target="2hdhjImFdKvlCasuUOon-26">
          <mxGeometry relative="1" as="geometry">
            <mxPoint x="603" y="800" as="sourcePoint" />
          </mxGeometry>
        </mxCell>
        <mxCell id="2hdhjImFdKvlCasuUOon-25" style="edgeStyle=orthogonalEdgeStyle;rounded=0;orthogonalLoop=1;jettySize=auto;html=1;exitX=0.5;exitY=1;exitDx=0;exitDy=0;entryX=0.5;entryY=0;entryDx=0;entryDy=0;" edge="1" parent="1" source="2hdhjImFdKvlCasuUOon-26" target="2hdhjImFdKvlCasuUOon-28">
          <mxGeometry relative="1" as="geometry" />
        </mxCell>
        <mxCell id="2hdhjImFdKvlCasuUOon-26" value="民警引导被提取人书写签名" style="rounded=0;whiteSpace=wrap;html=1;" vertex="1" parent="1">
          <mxGeometry x="757" y="770" width="120" height="60" as="geometry" />
        </mxCell>
        <mxCell id="2hdhjImFdKvlCasuUOon-63" style="edgeStyle=orthogonalEdgeStyle;rounded=0;orthogonalLoop=1;jettySize=auto;html=1;exitX=0.5;exitY=1;exitDx=0;exitDy=0;" edge="1" parent="1" source="2hdhjImFdKvlCasuUOon-28" target="2hdhjImFdKvlCasuUOon-47">
          <mxGeometry relative="1" as="geometry" />
        </mxCell>
        <mxCell id="2hdhjImFdKvlCasuUOon-28" value="被提取人完成书写" style="rounded=0;whiteSpace=wrap;html=1;" vertex="1" parent="1">
          <mxGeometry x="757" y="850" width="120" height="60" as="geometry" />
        </mxCell>
        <mxCell id="2hdhjImFdKvlCasuUOon-30" value="点击【上传结果】" style="rounded=1;whiteSpace=wrap;html=1;fillColor=#dae8fc;strokeColor=#6c8ebf;" vertex="1" parent="1">
          <mxGeometry x="874" y="1046" width="120" height="60" as="geometry" />
        </mxCell>
        <mxCell id="2hdhjImFdKvlCasuUOon-64" style="edgeStyle=orthogonalEdgeStyle;rounded=0;orthogonalLoop=1;jettySize=auto;html=1;exitX=0.5;exitY=1;exitDx=0;exitDy=0;" edge="1" parent="1" source="2hdhjImFdKvlCasuUOon-32" target="2hdhjImFdKvlCasuUOon-42">
          <mxGeometry relative="1" as="geometry" />
        </mxCell>
        <mxCell id="2hdhjImFdKvlCasuUOon-32" value="上传数据" style="rounded=0;whiteSpace=wrap;html=1;" vertex="1" parent="1">
          <mxGeometry x="757" y="1146" width="120" height="60" as="geometry" />
        </mxCell>
        <mxCell id="2hdhjImFdKvlCasuUOon-38" value="" style="endArrow=classic;html=1;rounded=0;exitX=0.5;exitY=1;exitDx=0;exitDy=0;entryX=0.5;entryY=0;entryDx=0;entryDy=0;" edge="1" parent="1" target="2hdhjImFdKvlCasuUOon-62">
          <mxGeometry width="50" height="50" relative="1" as="geometry">
            <mxPoint x="817" y="1006" as="sourcePoint" />
            <mxPoint x="690" y="1076" as="targetPoint" />
          </mxGeometry>
        </mxCell>
        <mxCell id="2hdhjImFdKvlCasuUOon-39" value="" style="endArrow=classic;html=1;rounded=0;exitX=0.5;exitY=1;exitDx=0;exitDy=0;entryX=0.5;entryY=0;entryDx=0;entryDy=0;" edge="1" parent="1" target="2hdhjImFdKvlCasuUOon-30">
          <mxGeometry width="50" height="50" relative="1" as="geometry">
            <mxPoint x="814" y="1006" as="sourcePoint" />
            <mxPoint x="933.96" y="1073" as="targetPoint" />
          </mxGeometry>
        </mxCell>
        <mxCell id="2hdhjImFdKvlCasuUOon-41" style="edgeStyle=orthogonalEdgeStyle;rounded=0;orthogonalLoop=1;jettySize=auto;html=1;exitX=0;exitY=0.5;exitDx=0;exitDy=0;entryX=0.5;entryY=1;entryDx=0;entryDy=0;fillColor=#fa6800;strokeColor=#C73500;" edge="1" parent="1" source="2hdhjImFdKvlCasuUOon-42">
          <mxGeometry relative="1" as="geometry">
            <mxPoint x="543" y="830" as="targetPoint" />
          </mxGeometry>
        </mxCell>
        <mxCell id="2hdhjImFdKvlCasuUOon-42" value="单次采集完成" style="rounded=0;whiteSpace=wrap;html=1;" vertex="1" parent="1">
          <mxGeometry x="757" y="1230" width="120" height="60" as="geometry" />
        </mxCell>
        <mxCell id="2hdhjImFdKvlCasuUOon-43" value="" style="endArrow=classic;html=1;rounded=0;exitX=0.5;exitY=1;exitDx=0;exitDy=0;entryX=0.5;entryY=0;entryDx=0;entryDy=0;" edge="1" parent="1" target="2hdhjImFdKvlCasuUOon-32">
          <mxGeometry width="50" height="50" relative="1" as="geometry">
            <mxPoint x="708.5" y="1106" as="sourcePoint" />
            <mxPoint x="835.5" y="1186" as="targetPoint" />
          </mxGeometry>
        </mxCell>
        <mxCell id="2hdhjImFdKvlCasuUOon-44" value="" style="endArrow=classic;html=1;rounded=0;exitX=0.5;exitY=1;exitDx=0;exitDy=0;entryX=0.5;entryY=0;entryDx=0;entryDy=0;" edge="1" parent="1" source="2hdhjImFdKvlCasuUOon-30" target="2hdhjImFdKvlCasuUOon-32">
          <mxGeometry width="50" height="50" relative="1" as="geometry">
            <mxPoint x="874" y="1116" as="sourcePoint" />
            <mxPoint x="761" y="1196" as="targetPoint" />
          </mxGeometry>
        </mxCell>
        <mxCell id="2hdhjImFdKvlCasuUOon-47" value="点击【结束采集】" style="rounded=1;whiteSpace=wrap;html=1;fillColor=#dae8fc;strokeColor=#6c8ebf;" vertex="1" parent="1">
          <mxGeometry x="757" y="946" width="120" height="60" as="geometry" />
        </mxCell>
        <mxCell id="2hdhjImFdKvlCasuUOon-48" value="循环采集阶段" style="rounded=0;whiteSpace=wrap;html=1;" vertex="1" parent="1">
          <mxGeometry x="450" y="710" width="120" height="40" as="geometry" />
        </mxCell>
        <mxCell id="2hdhjImFdKvlCasuUOon-53" value="语音提示：请书写" style="text;html=1;align=center;verticalAlign=middle;whiteSpace=wrap;rounded=0;" vertex="1" parent="1">
          <mxGeometry x="630" y="770" width="100" height="30" as="geometry" />
        </mxCell>
        <mxCell id="2hdhjImFdKvlCasuUOon-54" value="点击【开始采集】" style="rounded=1;whiteSpace=wrap;html=1;fillColor=#dae8fc;strokeColor=#6c8ebf;" vertex="1" parent="1">
          <mxGeometry x="480" y="770" width="120" height="60" as="geometry" />
        </mxCell>
        <mxCell id="2hdhjImFdKvlCasuUOon-56" value="确认无误后" style="text;html=1;align=center;verticalAlign=middle;whiteSpace=wrap;rounded=0;" vertex="1" parent="1">
          <mxGeometry x="887" y="1006" width="80" height="30" as="geometry" />
        </mxCell>
        <mxCell id="2hdhjImFdKvlCasuUOon-61" value="勾选&lt;div&gt;“结束后自动上传结果”&lt;/div&gt;" style="text;html=1;align=center;verticalAlign=middle;whiteSpace=wrap;rounded=0;" vertex="1" parent="1">
          <mxGeometry x="607" y="1006" width="125" height="30" as="geometry" />
        </mxCell>
        <mxCell id="2hdhjImFdKvlCasuUOon-62" value="系统自动上传数据" style="rounded=0;whiteSpace=wrap;html=1;" vertex="1" parent="1">
          <mxGeometry x="647" y="1046" width="120" height="60" as="geometry" />
        </mxCell>
        <mxCell id="2hdhjImFdKvlCasuUOon-68" style="edgeStyle=orthogonalEdgeStyle;rounded=0;orthogonalLoop=1;jettySize=auto;html=1;exitX=0;exitY=0.5;exitDx=0;exitDy=0;entryX=0.5;entryY=1;entryDx=0;entryDy=0;strokeColor=#C73500;" edge="1" parent="1" source="2hdhjImFdKvlCasuUOon-67" target="2hdhjImFdKvlCasuUOon-9">
          <mxGeometry relative="1" as="geometry" />
        </mxCell>
        <mxCell id="2hdhjImFdKvlCasuUOon-67" value="完成当前被提取&lt;span style=&quot;background-color: transparent; color: light-dark(rgb(0, 0, 0), rgb(255, 255, 255));&quot;&gt;人&lt;/span&gt;&lt;div&gt;&lt;span style=&quot;background-color: transparent; color: light-dark(rgb(0, 0, 0), rgb(255, 255, 255));&quot;&gt;信息采集&lt;/span&gt;&lt;/div&gt;" style="rounded=0;whiteSpace=wrap;html=1;" vertex="1" parent="1">
          <mxGeometry x="715" y="1350" width="120" height="60" as="geometry" />
        </mxCell>
        <mxCell id="2hdhjImFdKvlCasuUOon-70" value="" style="shape=actor;whiteSpace=wrap;html=1;" vertex="1" parent="1">
          <mxGeometry x="335" y="460" width="30" height="40" as="geometry" />
        </mxCell>
      </root>
    </mxGraphModel>
  </diagram>
</mxfile>
